<svg xmlns="http://www.w3.org/2000/svg" width="1024" height="1024" viewBox="0 0 1024 1024">
  <style>
    .main {
      fill: #171717; /* light mode */
    }

    .accent {
      fill: #7C3AED;
    }

    @media (prefers-color-scheme: dark) {
      .main {
        fill: #ffffff; /* dark mode */
      }
    }
  </style>
<g>
<path class="main" d="M 917.24 890.26 L 902.48 905.00 L 564.80 905.00 C379.07,905.00 226.98,904.66 226.81,904.25 C226.64,903.84 226.73,830.51 227.00,741.31 L 227.50 579.11 L 255.15 550.00 L 279.00 550.00 L 279.00 852.00 L 909.00 852.00 L 909.00 737.98 L 872.75 738.24 L 836.50 738.50 L 835.96 779.00 L 611.23 779.10 C487.63,779.16 378.85,779.16 369.50,779.10 L 352.50 779.00 L 352.25 664.50 L 351.99 550.00 L 397.00 550.00 L 397.00 441.50 C397.00,381.83 396.82,333.00 396.59,333.00 C394.87,333.00 361.28,338.16 357.86,338.95 C355.46,339.50 353.16,339.96 352.75,339.98 C352.34,339.99 352.00,320.31 352.00,296.25 L 352.00 252.50 L 431.50 252.50 L 432.03 181.00 L 279.00 181.00 L 279.00 268.94 C279.00,338.21 278.73,357.05 277.75,357.67 C277.06,358.10 269.30,360.79 260.50,363.66 C251.70,366.52 240.68,370.22 236.02,371.87 C231.36,373.52 227.31,374.64 227.02,374.35 C226.73,374.07 226.35,331.95 226.16,280.77 L 225.82 187.70 L 240.65 172.85 L 255.47 158.00 L 397.00 158.00 L 397.00 61.48 L 413.76 44.74 C422.98,35.53 431.11,28.00 431.83,28.00 C432.55,28.00 444.25,35.80 457.82,45.32 C471.39,54.85 494.20,70.76 508.50,80.67 C548.65,108.49 580.10,130.62 593.19,140.25 L 601.00 145.99 L 601.00 158.00 L 932.00 158.00 L 932.25 372.75 L 932.50 587.50 L 953.25 587.77 L 974.00 588.04 L 974.00 738.25 L 932.00 781.75 L 932.00 875.53 ZM 455.60 715.16 C455.88,715.62 567.46,716.00 703.54,716.00 L 950.96 716.00 L 951.51 713.75 C951.81,712.51 951.93,688.78 951.78,661.00 L 951.50 610.50 L 578.50 609.50 L 578.25 383.11 C578.01,168.97 577.90,156.64 576.25,155.33 C575.29,154.57 572.03,152.17 569.00,150.00 C565.97,147.83 561.70,144.70 559.50,143.04 C557.30,141.39 554.83,139.72 554.00,139.34 C553.17,138.95 545.75,133.84 537.50,127.97 C529.25,122.10 515.15,112.17 506.17,105.90 C497.19,99.63 486.17,91.90 481.67,88.73 C477.18,85.55 470.45,80.88 466.72,78.34 C463.00,75.80 459.71,73.34 459.42,72.86 C458.42,71.26 455.00,71.94 454.95,73.75 C454.59,86.72 455.22,714.55 455.60,715.16 ZM 601.00 313.00 L 601.00 588.01 L 693.25 587.76 L 785.50 587.50 L 786.01 313.00 ZM 836.67 587.33 C837.03,587.70 853.46,588.00 873.17,588.00 L 909.00 588.00 L 909.00 181.00 L 600.97 181.00 L 601.50 252.50 L 836.00 253.01 L 836.00 419.84 C836.00,511.59 836.30,586.97 836.67,587.33 ZM 755.36 557.19 L 755.50 572.50 L 745.40 572.78 C738.10,572.99 735.01,572.71 734.26,571.78 C733.68,571.07 733.14,565.01 733.05,558.20 C732.97,551.43 732.67,545.31 732.40,544.60 C732.03,543.63 734.70,543.02 743.13,542.16 C749.30,541.53 754.55,541.21 754.78,541.45 C755.02,541.69 755.28,548.77 755.36,557.19 ZM 750.75 516.25 C750.20,517.91 729.95,522.07 729.46,520.63 C729.25,520.01 728.18,515.89 727.08,511.49 C725.98,507.08 724.38,501.49 723.52,499.06 C722.66,496.63 722.31,494.34 722.73,493.97 C723.15,493.60 725.53,492.51 728.00,491.55 C730.47,490.58 734.65,488.94 737.29,487.90 L 742.07 486.00 L 743.88 490.25 C746.20,495.68 751.24,514.78 750.75,516.25 ZM 722.58 469.43 C717.97,471.94 713.81,474.00 713.35,474.00 C712.88,474.00 711.15,471.86 709.51,469.25 C707.87,466.64 704.32,461.59 701.63,458.03 L 696.75 451.56 L 700.62 448.17 C702.76,446.31 706.43,443.19 708.79,441.24 L 713.07 437.70 L 716.13 440.60 C720.27,444.53 732.31,462.69 731.57,463.89 C731.24,464.42 727.20,466.91 722.58,469.43 ZM 694.99 421.96 C693.98,423.36 690.53,427.03 687.33,430.12 L 681.50 435.75 L 671.00 427.54 C665.22,423.03 660.54,418.70 660.60,417.92 C660.74,415.86 669.79,402.02 671.39,401.40 C672.90,400.82 680.96,406.20 690.53,414.18 L 696.83 419.43 ZM 219.46 435.54 C212.88,438.08 206.78,440.38 205.90,440.66 C204.66,441.04 203.37,438.87 200.22,431.07 C196.56,422.01 196.32,420.90 197.82,420.10 C200.88,418.47 222.39,410.00 223.46,410.01 C224.41,410.02 232.38,429.95 231.71,430.63 C231.55,430.79 226.04,433.00 219.46,435.54 ZM 124.30 479.32 C117.59,482.99 111.87,486.00 111.60,486.00 C111.10,486.00 102.59,470.75 101.56,468.00 C101.14,466.90 104.29,464.72 113.48,459.75 C120.35,456.04 126.54,453.01 127.23,453.02 C128.42,453.03 137.76,471.69 136.90,472.33 C136.68,472.50 131.01,475.64 124.30,479.32 ZM 79.04 504.75 C72.46,508.74 66.85,512.00 66.56,512.00 C65.95,512.00 62.88,507.18 58.13,498.79 L 54.90 493.09 L 58.70 490.69 C60.79,489.37 65.20,486.80 68.50,484.97 C71.80,483.14 75.69,480.82 77.15,479.82 C78.61,478.82 80.05,478.00 80.34,478.00 C80.98,478.00 91.00,495.63 90.99,496.73 C90.99,497.15 85.61,500.76 79.04,504.75 ZM 649.43 390.25 C649.05,391.49 646.88,396.10 644.62,400.50 L 640.50 408.51 L 636.00 406.28 C633.53,405.05 627.79,402.61 623.25,400.85 C618.71,399.09 615.00,397.08 615.00,396.38 C615.00,395.13 620.94,377.92 621.66,377.07 C622.18,376.45 634.23,380.79 642.82,384.69 C649.40,387.68 650.06,388.23 649.43,390.25 ZM 317.45 403.00 C310.88,404.68 304.75,406.29 303.83,406.57 C302.92,406.85 301.95,406.73 301.68,406.29 C300.89,405.01 295.81,385.86 296.17,385.53 C297.48,384.36 324.54,378.25 325.01,379.02 C325.92,380.49 330.27,399.07 329.81,399.52 C329.59,399.75 324.02,401.31 317.45,403.00 ZM 280.00 412.66 C280.00,413.30 273.90,415.86 266.45,418.35 C252.91,422.88 252.91,422.88 252.08,420.69 C247.92,409.63 245.99,403.46 246.39,402.43 C246.85,401.23 270.09,393.00 273.00,393.00 C274.03,393.00 275.37,395.93 277.25,402.25 C278.77,407.34 280.00,412.02 280.00,412.66 ZM 367.25 391.89 C360.24,393.20 353.98,394.47 353.35,394.70 C351.71,395.32 351.46,394.62 349.44,383.74 C348.32,377.70 347.99,373.64 348.56,373.09 C349.50,372.21 375.91,367.57 376.51,368.18 C377.03,368.70 380.00,385.03 380.00,387.36 C380.00,389.31 378.86,389.71 367.25,391.89 ZM 183.58 449.75 C183.33,450.01 177.49,452.83 170.61,456.03 C161.14,460.42 157.86,461.54 157.10,460.62 C156.55,459.96 154.29,455.48 152.08,450.67 L 148.06 441.93 L 150.28 441.06 C151.50,440.58 157.38,437.90 163.35,435.09 C169.32,432.29 174.56,430.00 174.98,430.00 C175.93,430.00 184.25,449.09 183.58,449.75 ZM 46.63 523.13 C46.82,523.48 43.65,526.06 39.59,528.87 L 32.21 533.97 L 26.15 524.49 L 20.08 515.01 L 27.49 510.00 C31.57,507.25 35.09,505.00 35.30,505.00 C35.60,505.00 44.70,519.56 46.63,523.13 Z"/>
<path class="accent" d="M 455.60 715.16 C455.22,714.55 454.59,86.72 454.95,73.75 C455.00,71.94 458.42,71.26 459.42,72.86 C459.71,73.34 463.00,75.80 466.72,78.34 C470.45,80.88 477.18,85.55 481.67,88.73 C486.17,91.90 497.19,99.63 506.17,105.90 C515.15,112.17 529.25,122.10 537.50,127.97 C545.75,133.84 553.17,138.95 554.00,139.34 C554.83,139.72 557.30,141.39 559.50,143.04 C561.70,144.70 565.97,147.83 569.00,150.00 C572.03,152.17 575.29,154.57 576.25,155.33 C577.90,156.64 578.01,168.97 578.25,383.11 L 578.50 609.50 L 951.50 610.50 L 951.78 661.00 C951.93,688.78 951.81,712.51 951.51,713.75 L 950.96 716.00 L 703.54 716.00 C567.46,716.00 455.88,715.62 455.60,715.16 Z"/>
</g>
</svg>