<svg xmlns="http://www.w3.org/2000/svg" width="1024" height="1024" viewBox="0 0 1024 1024">
<g>
<path d="M 953.89 962.75 L 937.81 979.00 L 567.07 979.00 C363.17,979.00 196.15,978.81 195.92,978.58 C195.69,978.35 195.73,898.05 196.00,800.13 L 196.50 622.10 L 211.83 606.05 L 227.15 590.00 L 252.99 590.00 L 253.25 755.75 L 253.50 921.50 L 944.50 921.50 L 945.02 797.00 L 865.04 797.00 L 864.77 819.25 L 864.50 841.50 L 333.50 841.50 L 333.25 715.77 L 332.99 590.03 L 357.75 589.77 L 382.50 589.50 L 383.01 351.91 L 379.75 352.43 C377.96,352.71 370.17,353.87 362.44,354.99 C354.70,356.11 345.16,357.64 341.23,358.39 C337.30,359.14 333.84,359.51 333.54,359.21 C333.24,358.91 333.00,337.37 333.00,311.34 L 333.00 264.02 L 376.75 263.76 L 420.50 263.50 L 420.76 224.25 L 421.02 185.00 L 253.01 185.00 L 252.75 282.15 L 252.50 379.30 L 224.55 388.62 C209.18,393.74 196.35,397.69 196.05,397.38 C195.75,397.08 195.36,350.86 195.19,294.67 L 194.88 192.50 L 210.86 176.59 L 226.84 160.69 L 304.17 160.44 C346.70,160.31 381.84,160.15 382.25,160.10 C382.66,160.04 383.00,136.26 383.00,107.24 L 383.00 54.48 L 401.91 35.59 L 420.81 16.71 L 439.16 29.54 C449.25,36.60 459.75,43.96 462.50,45.89 C465.25,47.83 482.91,60.10 501.74,73.15 C538.07,98.34 543.61,102.22 581.75,129.21 L 606.00 146.37 L 606.00 160.00 L 968.72 160.00 L 969.36 166.15 C969.71,169.53 970.00,275.50 970.00,401.65 C970.00,619.40 970.09,631.00 971.75,631.04 C972.71,631.06 983.06,631.04 994.75,631.00 L 1016.00 630.93 L 1016.00 796.90 L 970.00 843.76 L 969.98 895.13 L 969.96 946.50 ZM 446.67 771.34 C447.04,771.70 569.55,771.89 718.92,771.75 L 990.50 771.50 L 990.76 713.75 L 991.02 656.00 L 786.26 655.75 L 581.50 655.50 L 581.00 406.59 L 580.50 157.67 L 558.50 142.30 C546.40,133.85 532.90,124.39 528.50,121.28 C524.10,118.17 515.78,112.36 510.00,108.37 C504.23,104.38 494.77,97.74 489.00,93.62 C473.33,82.45 447.56,65.00 446.73,65.00 C445.81,65.00 445.76,770.42 446.67,771.34 ZM 612.25 631.26 C616.95,631.52 787.07,631.34 805.75,631.05 L 809.00 631.00 L 809.00 329.99 L 606.50 330.50 L 605.99 630.90 ZM 893.25 631.23 C908.79,631.38 926.79,631.36 933.25,631.19 L 945.00 630.88 L 944.50 185.50 L 775.24 185.25 L 605.98 184.99 L 606.24 224.25 L 606.50 263.50 L 865.00 264.01 L 865.00 630.97 ZM 703.95 456.05 C699.46,460.97 695.44,465.00 695.01,465.00 C694.59,465.00 693.76,464.42 693.18,463.71 C692.59,463.01 687.36,458.85 681.56,454.47 C675.75,450.09 671.00,446.22 671.00,445.87 C671.00,445.35 682.38,427.47 683.53,426.18 C684.08,425.55 691.79,430.92 701.89,438.96 L 712.12 447.11 ZM 776.81 609.11 L 776.50 614.50 L 764.73 614.78 C755.84,614.99 752.86,614.75 752.56,613.78 C752.34,613.08 751.90,605.72 751.57,597.44 L 750.97 582.37 L 762.74 581.33 C769.21,580.75 774.65,580.41 774.84,580.57 C775.54,581.14 777.10,603.90 776.81,609.11 ZM 760.75 556.40 C755.11,557.42 749.94,558.47 749.26,558.73 C748.58,558.99 747.83,558.60 747.59,557.85 C747.36,557.11 745.54,550.88 743.56,544.00 C741.57,537.12 739.72,530.83 739.45,530.00 C739.00,528.66 746.75,525.09 760.18,520.42 C761.56,519.95 762.41,521.59 764.98,529.60 C768.23,539.73 770.96,550.39 770.99,553.02 C771.00,554.16 768.45,555.00 760.75,556.40 ZM 739.70 501.89 C734.50,504.70 729.86,506.99 729.38,506.97 C728.89,506.96 726.97,504.41 725.09,501.32 C723.22,498.23 719.49,492.79 716.80,489.23 C714.11,485.68 712.04,482.44 712.20,482.02 C712.54,481.17 728.90,467.00 729.55,467.00 C732.02,467.00 750.53,493.18 749.66,495.45 C749.38,496.18 744.89,499.08 739.70,501.89 ZM 83.79 512.44 C76.08,516.60 69.49,519.99 69.14,519.98 C68.29,519.96 57.50,499.16 58.06,498.64 C59.28,497.52 87.12,482.80 87.42,483.12 C87.61,483.33 90.02,488.31 92.78,494.19 L 97.80 504.88 ZM 186.82 465.00 C179.03,468.02 172.34,470.63 171.95,470.79 C171.57,470.95 169.28,466.25 166.88,460.34 C164.47,454.43 162.37,449.31 162.22,448.96 C162.07,448.61 163.64,447.63 165.72,446.78 C183.01,439.71 190.22,437.00 191.73,437.01 C193.06,437.01 194.43,439.56 197.26,447.26 C199.32,452.89 201.01,457.95 201.00,458.50 C200.99,459.05 194.61,461.98 186.82,465.00 ZM 289.04 430.60 C279.35,433.35 278.10,433.47 277.52,431.75 C276.47,428.64 272.00,411.39 272.00,410.47 C272.00,409.30 302.67,401.33 303.59,402.26 C304.54,403.21 309.10,423.29 308.64,424.49 C308.42,425.08 305.82,426.16 302.87,426.88 C299.91,427.61 293.69,429.28 289.04,430.60 ZM 655.03 424.84 C652.30,430.43 649.94,434.98 649.78,434.96 C649.63,434.94 648.15,434.18 646.50,433.27 C644.85,432.37 638.79,429.73 633.03,427.40 C627.27,425.07 622.39,422.68 622.20,422.09 C621.80,420.91 627.79,402.00 628.97,400.71 C630.38,399.15 660.00,411.35 660.00,413.48 C660.00,414.14 657.76,419.25 655.03,424.84 ZM 348.50 417.04 C342.45,418.21 336.49,419.40 335.25,419.69 C334.01,419.98 333.00,420.06 332.99,419.86 C332.99,419.66 331.89,414.34 330.55,408.02 C329.21,401.71 328.31,396.36 328.54,396.12 C329.08,395.59 360.19,389.85 360.53,390.22 C360.99,390.73 364.00,409.31 364.00,411.66 C364.00,413.24 363.29,414.11 361.75,414.45 C360.51,414.71 354.55,415.88 348.50,417.04 ZM 42.78 535.00 C40.43,536.32 34.35,539.98 29.28,543.14 L 20.06 548.89 L 18.18 546.19 C14.96,541.57 8.00,529.20 8.00,528.11 C8.00,526.85 32.87,512.03 35.00,512.02 C36.24,512.02 45.77,527.80 46.78,531.55 C46.94,532.12 45.14,533.67 42.78,535.00 ZM 241.25 445.01 C234.24,447.36 227.76,449.66 226.86,450.12 C225.83,450.64 224.84,450.50 224.23,449.73 C222.95,448.13 216.46,428.19 217.05,427.67 C217.99,426.84 247.35,417.02 247.74,417.40 C248.45,418.12 254.00,437.27 254.00,439.03 C254.00,440.32 250.92,441.77 241.25,445.01 ZM 148.23 480.14 C147.83,480.52 141.27,483.78 133.67,487.39 L 119.83 493.94 L 114.92 483.52 C112.21,477.79 110.00,472.72 110.00,472.27 C110.00,471.66 128.67,462.62 139.03,458.22 C140.03,457.79 149.07,479.33 148.23,480.14 Z" fill="#171717"/>
<path d="M 446.67 771.34 C445.76,770.42 445.81,65.00 446.73,65.00 C447.56,65.00 473.33,82.45 489.00,93.62 C494.77,97.74 504.23,104.38 510.00,108.37 C515.78,112.36 524.10,118.17 528.50,121.28 C532.90,124.39 546.40,133.85 558.50,142.30 L 580.50 157.67 L 581.00 406.59 L 581.50 655.50 L 786.26 655.75 L 991.02 656.00 L 990.76 713.75 L 990.50 771.50 L 718.92 771.75 C569.55,771.89 447.04,771.70 446.67,771.34 Z" fill="#7C3AED"/>
</g>
</svg>