<svg xmlns="http://www.w3.org/2000/svg" width="1024" height="1024" viewBox="0 0 1024 1024">
<g>
<path d="M 806.20 737.74 L 794.50 749.97 L 524.50 750.24 C376.00,750.38 251.91,750.37 248.75,750.20 L 243.00 749.90 L 243.00 485.53 L 266.47 462.00 L 286.00 462.00 L 286.00 708.00 L 542.25 707.75 L 798.50 707.50 L 798.76 661.25 L 799.02 615.00 L 740.00 615.00 L 740.00 648.00 L 543.50 648.00 C435.42,648.00 346.66,648.11 346.25,648.25 C345.84,648.39 345.39,606.55 345.24,555.27 L 344.99 462.05 L 363.24 461.77 L 381.50 461.50 L 381.76 373.37 L 382.01 285.24 L 377.26 285.73 C374.64,286.00 366.53,287.21 359.24,288.43 C351.95,289.65 345.76,290.43 345.49,290.16 C345.22,289.89 345.00,273.99 345.00,254.83 L 345.00 220.00 L 410.00 220.00 L 410.00 161.00 L 286.01 161.00 L 285.76 233.14 L 285.50 305.29 L 265.00 312.10 C253.73,315.84 244.16,318.93 243.75,318.96 C243.34,318.98 243.00,284.61 243.00,242.59 L 243.00 166.18 L 266.06 143.50 L 323.78 143.00 L 381.50 142.50 L 381.76 103.50 L 382.02 64.50 L 395.75 50.75 C403.30,43.19 410.00,37.00 410.64,37.00 C411.28,37.00 415.78,39.85 420.65,43.33 C425.52,46.80 443.00,59.02 459.50,70.47 C514.69,108.78 542.73,128.55 545.75,131.30 C547.49,132.88 548.00,134.44 548.00,138.17 L 548.00 143.00 L 817.00 143.00 L 817.14 169.25 C817.21,183.69 817.33,262.10 817.39,343.50 L 817.50 491.50 L 852.00 492.05 L 852.00 614.98 L 835.00 632.36 L 818.00 649.73 L 817.95 687.62 L 817.90 725.50 ZM 428.24 335.75 L 428.31 596.00 L 833.00 596.00 L 833.00 510.00 L 529.00 510.00 L 529.00 325.11 C529.00,163.55 528.81,140.14 527.53,139.65 C526.73,139.34 520.99,135.53 514.78,131.18 C499.59,120.52 469.06,99.11 449.50,85.37 C440.70,79.20 432.96,73.66 432.29,73.07 C430.53,71.51 429.20,71.76 428.65,73.75 C428.38,74.71 428.20,192.61 428.24,335.75 ZM 548.00 269.00 L 548.00 492.00 L 698.00 492.00 L 698.13 483.75 C698.53,457.94 698.58,300.77 698.19,286.25 L 697.73 269.00 ZM 740.00 220.01 L 740.00 492.00 L 799.00 492.00 L 799.00 161.00 L 547.97 161.00 L 548.23 190.25 L 548.50 219.50 ZM 692.00 892.00 L 692.00 923.00 L 673.97 923.00 C660.47,923.00 655.82,922.69 655.46,921.75 C655.20,921.06 655.10,895.08 655.24,864.00 L 655.50 807.50 L 686.50 807.23 C720.85,806.93 727.45,807.65 738.50,812.90 C749.89,818.31 756.21,826.04 759.47,838.53 C763.47,853.89 758.42,871.16 747.44,879.68 C745.44,881.23 742.90,883.19 741.80,884.04 C739.85,885.55 740.11,886.06 751.46,903.29 C757.88,913.03 763.44,920.99 763.82,920.98 C764.19,920.96 771.21,905.33 779.42,886.23 C787.63,867.13 798.65,841.48 803.92,829.24 L 813.50 806.98 L 832.45 807.24 L 851.40 807.50 L 860.54 828.00 C865.56,839.28 875.12,860.88 881.77,876.00 C888.42,891.12 895.64,907.55 897.83,912.50 C900.01,917.45 901.47,921.85 901.07,922.27 C900.68,922.70 892.08,922.92 881.96,922.77 L 863.57 922.50 L 859.38 912.50 L 855.18 902.50 L 832.34 902.24 L 809.50 901.98 L 805.46 912.24 L 801.42 922.50 L 723.73 922.50 L 716.33 911.00 C712.26,904.67 708.04,897.81 706.95,895.75 C704.96,892.01 704.95,892.00 698.48,892.00 ZM 369.00 896.00 L 368.50 922.50 L 335.00 923.05 L 335.00 807.00 L 366.70 807.00 L 373.60 818.25 C377.40,824.44 385.68,838.15 392.00,848.72 C398.33,859.29 403.91,867.81 404.41,867.67 C404.90,867.52 408.73,861.53 412.91,854.36 C417.08,847.20 425.00,833.61 430.50,824.18 L 440.50 807.02 L 456.76 807.01 L 473.02 807.00 L 472.50 922.50 L 455.90 922.77 L 439.30 923.05 L 438.65 913.87 C438.29,908.82 437.97,896.55 437.94,886.60 C437.90,874.44 437.56,868.99 436.91,870.00 C436.37,870.83 431.31,879.60 425.66,889.50 C420.01,899.40 414.74,908.51 413.95,909.75 C412.66,911.78 411.73,912.00 404.31,912.00 C403.77,912.00 403.26,912.00 402.79,912.01 C400.44,912.03 398.81,912.04 397.36,911.53 C393.77,910.25 391.33,905.73 381.95,890.00 C376.86,881.47 371.98,873.38 371.10,872.00 C369.60,869.66 369.47,871.24 369.00,896.00 ZM 610.63 836.50 L 610.50 922.50 L 592.44 922.77 C582.50,922.92 574.07,922.73 573.69,922.36 C573.31,921.98 573.00,902.39 573.00,878.83 L 573.00 836.00 L 538.74 836.00 L 539.36 832.25 C539.70,830.19 539.98,823.66 539.99,817.75 L 540.00 807.00 L 644.00 807.00 L 644.00 835.95 ZM 268.05 893.00 L 267.50 922.50 L 222.93 922.76 C198.41,922.90 178.05,922.72 177.68,922.34 C177.30,921.97 177.00,895.87 177.00,864.33 L 177.00 807.00 L 214.00 807.00 L 214.01 844.75 C214.01,865.51 214.30,884.86 214.65,887.75 L 215.28 893.00 ZM 316.40 887.00 L 316.50 922.50 L 298.44 922.77 C288.50,922.92 280.07,922.73 279.69,922.36 C279.31,921.98 279.00,895.87 279.00,864.33 L 279.00 807.00 L 316.00 807.00 L 316.15 829.25 C316.23,841.49 316.35,867.47 316.40,887.00 ZM 529.02 807.00 L 528.50 922.50 L 510.94 922.77 C501.28,922.92 493.07,922.73 492.69,922.36 C492.31,921.98 492.00,895.87 492.00,864.33 L 492.00 807.00 ZM 542.77 992.45 C534.31,995.99 523.97,992.54 519.02,984.53 C515.07,978.14 516.43,966.54 521.68,961.79 C526.48,957.45 537.25,955.63 543.68,958.07 C549.82,960.39 554.96,968.11 554.96,975.00 C554.96,982.25 549.92,989.47 542.77,992.45 ZM 708.22 992.96 C700.75,995.03 694.69,993.53 689.12,988.23 C676.85,976.54 685.05,957.10 702.28,957.02 C707.36,957.00 713.18,958.97 716.35,961.79 C719.13,964.25 721.96,970.93 721.96,975.00 C721.96,982.75 715.75,990.86 708.22,992.96 ZM 253.00 983.50 L 253.00 993.00 L 244.95 993.00 L 245.50 957.50 L 249.03 957.20 C252.53,956.91 252.62,957.01 258.92,967.45 C262.42,973.25 265.56,977.99 265.89,977.97 C266.23,977.95 269.20,973.34 272.50,967.72 C278.28,957.88 278.64,957.49 282.25,957.19 L 286.00 956.88 L 286.00 993.00 L 278.00 993.00 L 278.00 983.50 C278.00,978.28 277.66,974.01 277.25,974.01 C276.84,974.02 274.55,977.39 272.16,981.51 C266.36,991.52 264.94,991.52 259.00,981.50 C256.55,977.38 254.20,974.00 253.78,974.00 C253.35,974.00 253.00,978.28 253.00,983.50 ZM 441.11 990.75 C441.01,992.69 440.45,993.00 437.00,993.00 L 433.00 993.00 L 433.00 956.70 L 444.10 957.37 C456.83,958.15 460.50,959.57 462.58,964.53 C465.15,970.68 464.12,975.54 459.42,979.53 L 457.03 981.55 L 460.52 986.45 C462.43,989.15 464.00,991.72 464.00,992.18 C464.00,992.63 462.24,993.00 460.09,993.00 C456.55,993.00 455.85,992.53 452.60,988.00 C449.29,983.40 448.67,983.00 444.93,983.00 C441.10,983.00 440.86,983.17 441.03,985.75 C441.13,987.26 441.16,989.51 441.11,990.75 ZM 609.00 983.00 L 609.00 993.00 L 601.00 993.00 L 601.00 958.28 L 606.25 957.79 C609.14,957.52 614.52,957.58 618.20,957.92 C623.72,958.43 625.43,959.04 627.85,961.35 C629.46,962.90 631.06,965.54 631.39,967.22 C632.28,971.63 630.37,977.57 627.36,979.76 L 624.75 981.65 L 628.38 986.70 C630.37,989.47 632.00,992.02 632.00,992.37 C632.00,992.72 630.20,993.00 628.00,993.00 C624.34,993.00 623.69,992.57 620.40,988.00 C617.15,983.47 616.45,983.00 612.91,983.00 ZM 692.00 836.00 L 692.00 863.00 L 702.03 863.00 C717.50,863.00 723.00,859.54 723.00,849.82 C723.00,838.93 718.66,836.00 702.53,836.00 ZM 299.86 989.50 C298.68,992.76 298.30,993.00 294.30,993.00 C291.93,993.00 290.00,992.61 290.00,992.12 C290.00,991.64 292.03,986.88 294.50,981.55 C296.98,976.21 300.40,968.50 302.10,964.42 L 305.19 957.00 L 313.72 957.00 L 321.61 974.15 C325.95,983.58 329.65,991.68 329.83,992.15 C330.02,992.62 328.19,993.00 325.77,993.00 C321.73,993.00 321.24,992.72 319.70,989.50 L 318.03 986.00 L 301.13 986.00 ZM 427.00 986.00 L 427.00 993.00 L 399.00 993.00 L 399.00 957.00 L 426.00 957.00 L 426.00 964.00 L 406.88 964.00 L 407.50 971.50 L 415.75 971.79 L 424.00 972.08 L 424.00 978.00 L 407.00 978.00 L 407.00 986.00 ZM 788.28 992.63 C786.51,993.38 783.57,994.00 781.74,994.00 C777.06,994.00 769.92,990.11 767.26,986.10 C765.21,983.01 765.00,981.53 765.00,969.79 L 765.00 956.89 L 773.50 957.50 L 774.00 970.22 C774.55,984.10 775.09,985.47 780.55,986.56 C782.74,987.00 784.26,986.61 786.04,985.17 C788.37,983.29 788.53,982.49 789.00,970.34 L 789.50 957.50 L 797.15 956.87 L 796.82 971.36 C796.51,985.20 796.39,985.96 794.00,988.55 C792.62,990.04 790.05,991.87 788.28,992.63 ZM 586.66 991.49 C585.28,992.39 581.76,993.36 578.83,993.64 C574.54,994.04 572.62,993.69 569.02,991.82 C562.10,988.23 561.14,985.70 560.93,970.50 L 560.76 957.50 L 564.88 957.19 L 569.00 956.89 L 569.00 968.89 C569.00,980.03 569.17,981.08 571.34,983.61 C574.30,987.06 579.15,987.29 582.31,984.14 C584.29,982.16 584.53,980.74 584.83,969.48 L 585.16 957.00 L 593.00 957.00 L 592.98 969.25 C592.95,982.83 591.37,988.40 586.66,991.49 ZM 824.19 992.97 C817.52,994.82 808.72,993.50 804.55,990.04 C802.34,988.21 804.68,983.65 807.45,984.39 C818.16,987.24 819.78,987.38 822.42,985.64 C826.59,982.91 824.43,980.57 815.82,978.46 C807.00,976.30 804.00,973.71 804.00,968.27 C804.00,960.98 809.41,957.00 819.32,957.00 C823.79,957.00 831.00,958.51 831.00,959.45 C831.00,959.59 830.50,961.15 829.88,962.91 C829.05,965.30 828.34,965.95 827.13,965.45 C824.37,964.32 817.26,963.72 814.56,964.40 C811.59,965.14 811.14,967.99 813.75,969.60 C814.71,970.20 817.97,971.27 821.00,971.98 C824.03,972.69 827.28,973.67 828.24,974.16 C830.48,975.32 833.00,980.20 833.00,983.37 C833.00,986.88 828.52,991.76 824.19,992.97 ZM 352.19 992.97 C347.07,994.39 343.32,994.19 337.50,992.21 C332.94,990.65 332.52,990.25 332.71,987.59 C333.02,983.35 334.43,982.39 337.44,984.37 C341.68,987.15 348.10,987.55 350.98,985.22 C354.28,982.54 352.63,980.58 345.70,978.95 C339.08,977.40 335.53,975.59 333.56,972.78 C330.31,968.14 332.86,960.79 338.53,958.42 C342.61,956.72 351.46,956.57 355.93,958.12 C358.75,959.11 359.07,959.58 358.51,961.87 C357.60,965.56 356.53,966.35 354.17,965.09 C353.05,964.49 349.91,964.00 347.19,964.00 C336.73,964.00 338.53,969.72 349.72,972.05 C356.90,973.54 361.00,977.28 361.00,982.35 C361.00,986.88 357.08,991.61 352.19,992.97 ZM 752.10 992.86 C736.65,998.04 721.45,983.13 727.07,968.32 C730.62,958.95 744.76,953.95 754.55,958.59 C760.09,961.22 760.76,962.70 757.76,965.70 L 755.17 968.28 L 752.45 966.14 C746.55,961.50 737.38,964.28 735.03,971.41 C731.36,982.54 744.43,991.25 753.07,983.44 C754.45,982.19 754.97,982.36 757.33,984.82 L 760.02 987.63 L 757.76 989.68 C756.52,990.80 753.97,992.24 752.10,992.86 ZM 661.50 980.50 L 660.90 993.00 L 653.00 993.00 L 653.00 957.00 L 680.00 957.00 L 680.00 964.00 L 662.00 964.00 L 662.00 973.00 L 678.00 973.00 L 678.00 979.92 L 669.75 980.21 ZM 502.00 987.24 L 502.00 993.00 L 494.00 993.00 L 494.00 986.41 C494.00,980.03 493.80,979.49 487.50,969.46 C483.92,963.77 481.00,958.63 481.00,958.05 C481.00,957.47 482.75,957.00 484.90,957.00 C488.67,957.00 488.94,957.24 493.56,964.64 C493.81,965.05 494.05,965.44 494.28,965.80 C496.39,969.21 497.49,970.98 498.59,970.98 C499.90,970.98 501.21,968.46 504.24,963.16 C507.61,957.26 508.40,956.71 512.92,957.18 L 516.03 957.50 L 509.02 969.49 C502.53,980.58 502.00,981.91 502.00,987.24 ZM 622.98 352.80 L 626.46 355.75 L 613.50 368.86 L 604.81 362.18 C600.03,358.51 596.09,355.13 596.06,354.68 C595.97,353.44 604.84,340.00 605.73,340.01 C606.55,340.02 617.23,347.94 622.98,352.80 ZM 647.55 395.91 C643.45,398.16 639.74,400.00 639.30,399.99 C638.86,399.99 637.54,398.30 636.36,396.24 C635.19,394.18 632.37,390.03 630.10,387.01 L 625.97 381.52 L 631.24 376.80 C638.51,370.27 639.79,369.99 643.26,374.12 C646.14,377.54 655.00,390.56 655.00,391.38 C655.00,391.62 651.65,393.66 647.55,395.91 ZM 667.87 435.49 C658.54,437.83 652.79,438.61 652.45,437.60 C652.25,436.99 651.40,433.77 650.56,430.43 C649.72,427.09 648.39,422.52 647.59,420.26 L 646.15 416.17 L 654.02 412.99 C658.35,411.25 662.36,410.10 662.92,410.45 C664.11,411.18 668.70,425.26 669.61,430.98 C670.18,434.52 670.01,434.96 667.87,435.49 ZM 382.23 985.25 L 382.00 993.00 L 374.00 993.00 L 374.00 964.00 L 368.50 964.00 C363.11,964.00 363.00,963.94 363.00,961.13 C363.00,958.59 363.43,958.19 366.75,957.64 C368.81,957.30 375.79,957.02 382.25,957.01 L 394.00 957.00 L 394.00 963.90 L 388.29 964.20 L 382.57 964.50 L 382.52 971.00 C382.49,974.58 382.36,980.99 382.23,985.25 ZM 673.83 467.58 L 674.16 480.00 L 656.30 480.00 L 655.72 468.26 C655.40,461.81 655.23,456.44 655.34,456.33 C655.82,455.84 672.55,454.32 673.00,454.72 C673.28,454.96 673.65,460.75 673.83,467.58 ZM 169.40 398.90 C168.90,399.34 164.12,402.02 158.77,404.87 L 149.05 410.05 L 144.96 401.92 C142.71,397.45 141.01,393.68 141.19,393.53 C142.84,392.16 161.02,383.00 162.09,383.00 C163.85,383.00 170.64,397.80 169.40,398.90 ZM 586.39 329.30 C587.95,330.43 587.77,331.20 584.29,338.65 L 580.50 346.77 L 575.50 344.39 C572.75,343.09 567.94,340.93 564.81,339.59 L 559.12 337.17 L 561.80 329.01 C564.40,321.06 564.55,320.86 567.26,321.40 C570.70,322.09 584.10,327.62 586.39,329.30 ZM 122.24 425.33 C117.14,428.45 112.84,431.00 112.67,431.00 C111.79,431.00 103.91,415.96 104.39,415.18 C105.10,414.03 124.04,402.70 124.49,403.16 C126.31,405.01 132.97,418.40 132.33,418.94 C131.88,419.34 127.33,422.21 122.24,425.33 ZM 237.75 368.29 C232.66,370.29 227.72,372.22 226.76,372.57 C225.41,373.06 224.60,372.24 223.16,368.85 C219.37,359.97 218.64,356.84 220.13,355.89 C222.05,354.66 239.28,347.99 240.52,348.00 C241.47,348.00 247.00,361.38 247.00,363.66 C247.00,364.21 242.84,366.30 237.75,368.29 ZM 356.50 333.36 C355.70,333.49 354.95,333.62 354.26,333.73 C347.50,334.87 345.70,335.18 345.06,334.45 C344.76,334.11 344.71,333.55 344.53,332.75 C344.27,331.62 344.03,330.58 343.81,329.61 C342.23,322.79 341.54,319.79 342.73,318.21 C343.84,316.75 346.58,316.52 351.75,315.60 C357.11,314.65 362.46,313.64 363.63,313.36 C365.62,312.88 365.86,313.44 367.05,321.45 C367.82,326.64 367.97,330.39 367.42,330.87 C366.91,331.32 362.00,332.43 356.50,333.36 ZM 276.34 354.39 C270.37,356.37 265.20,358.00 264.83,358.00 C263.67,358.00 258.74,341.86 259.64,341.04 C261.16,339.65 280.02,333.79 281.34,334.30 C282.04,334.57 283.43,337.65 284.42,341.14 C285.42,344.64 286.44,348.24 286.70,349.14 C287.08,350.45 284.99,351.51 276.34,354.39 ZM 316.25 342.28 C310.34,343.80 305.21,345.03 304.86,345.02 C303.76,344.98 299.79,328.81 300.67,327.95 C301.44,327.20 320.74,322.00 322.75,322.00 C323.60,322.00 327.04,334.91 327.01,338.00 C327.00,339.08 323.91,340.31 316.25,342.28 ZM 198.33 385.02 C193.01,387.48 188.31,389.64 187.87,389.82 C187.44,389.99 185.26,386.50 183.02,382.05 L 178.96 373.96 L 188.72 369.42 C194.09,366.93 199.30,364.80 200.30,364.70 C201.65,364.55 202.85,366.23 205.05,371.35 C206.67,375.12 208.00,378.72 208.00,379.37 C208.00,380.01 203.65,382.55 198.33,385.02 ZM 699.42 985.58 C701.32,986.41 702.09,986.82 702.86,986.83 C703.50,986.84 704.15,986.56 705.45,986.01 C705.73,985.89 706.05,985.75 706.40,985.61 C711.06,983.66 713.00,980.46 713.00,974.70 C713.00,970.67 712.50,969.35 710.08,966.92 C705.30,962.15 696.50,963.21 693.55,968.91 C690.17,975.44 692.71,982.66 699.42,985.58 ZM 532.42 985.58 C534.32,986.41 535.09,986.82 535.86,986.83 C536.50,986.84 537.15,986.56 538.45,986.01 C538.73,985.89 539.05,985.75 539.40,985.61 C544.06,983.66 546.00,980.46 546.00,974.70 C546.00,970.67 545.50,969.35 543.08,966.92 C538.31,962.15 529.43,963.34 526.42,969.15 C523.17,975.45 525.81,982.70 532.42,985.58 ZM 821.00 873.11 C821.00,873.60 826.21,874.00 832.58,874.00 C838.95,874.00 844.02,873.64 843.83,873.21 C843.65,872.77 841.07,866.24 838.10,858.71 C833.42,846.80 831.00,842.47 831.00,845.99 C831.00,846.53 828.75,852.66 826.00,859.60 C823.25,866.54 821.00,872.62 821.00,873.11 ZM 91.01 444.35 C88.00,446.36 85.30,447.99 85.01,447.98 C84.73,447.97 83.12,445.83 81.42,443.23 C79.73,440.63 77.56,437.30 76.61,435.83 L 74.87 433.15 L 81.06 429.04 C84.47,426.77 87.45,425.12 87.69,425.36 C88.64,426.30 97.04,440.29 96.78,440.49 C96.62,440.61 94.03,442.35 91.01,444.35 ZM 441.67 975.33 C443.04,976.71 451.35,975.99 453.17,974.35 C455.17,972.53 455.68,966.54 453.93,965.46 C453.34,965.10 450.19,964.56 446.93,964.26 L 441.00 963.72 L 441.00 969.19 C441.00,972.20 441.30,974.97 441.67,975.33 ZM 609.00 964.00 L 609.00 976.00 L 614.35 976.00 C620.62,976.00 623.35,973.87 622.82,969.36 C622.42,965.89 619.10,964.04 613.25,964.01 ZM 305.00 978.09 C305.00,978.59 307.25,979.00 310.00,979.00 C312.75,979.00 314.97,978.66 314.92,978.25 C314.88,977.84 313.62,974.84 312.13,971.58 L 309.41 965.66 L 307.20 971.42 C305.99,974.59 305.00,977.59 305.00,978.09 Z" fill="#FFFFFF"/>
<path d="M 428.24 335.75 C428.20,192.61 428.38,74.71 428.65,73.75 C429.20,71.76 430.53,71.51 432.29,73.07 C432.96,73.66 440.70,79.20 449.50,85.37 C469.06,99.11 499.59,120.52 514.78,131.18 C520.99,135.53 526.73,139.34 527.53,139.65 C528.81,140.14 529.00,163.55 529.00,325.11 L 529.00 510.00 L 833.00 510.00 L 833.00 596.00 L 428.31 596.00 Z" fill="#7C3AED"/>
</g>
</svg>